ffmpeg started on 2026-01-20 at 14:06:23
Report written to "D:\Convert\FFMetrics\reports\psnr_report-6.txt"
Log level: 32
Command line:
ffmpeg -hide_banner -nostdin -r 24000/1001 -i "F:\\Convert\\files\\[DC] Make Heroine ga Oosugiru - 07_Telegram_HEVC(205).mkv" -r 24000/1001 -i "F:\\Convert\\files\\[DC] Make Heroine ga Oosugiru - 07_Telegram.mp4" -lavfi "[0:v]settb=AVTB,setpts=PTS-STARTPTS,format=pix_fmts=yuv420p10le,fps=24000/1001,scale=1920:1080:flags=lanczos:param0=3:out_range=limited:out_color_matrix=bt709:out_chroma_loc=left,setsar=1/1,setdar=(1920/1080)*(1/1),colorspace=format=yuv420p10:range=tv:primaries=bt709:trc=bt709:space=bt709:fast=0[main];[1:v]settb=AVTB,setpts=PTS-STARTPTS,format=pix_fmts=yuv420p,fps=24000/1001,scale=1920:1080:flags=lanczos:param0=3:out_range=limited:out_color_matrix=bt709:out_chroma_loc=left,setsar=1.000,setdar=1.778,colorspace=format=yuv420p:range=tv:primaries=bt709:trc=bt709:space=bt709:fast=0[ref];[main][ref]psnr=eof_action=endall:stats_file='D\\:/Convert/FFMetrics/logs/psnr_logfile-6.txt'" -f null -
Input #0, matroska,webm, from 'F:\Convert\files\[DC] Make Heroine ga Oosugiru - 07_Telegram_HEVC(205).mkv':
  Metadata:
    COMPATIBLE_BRANDS: isomiso2avc1mp41
    MAJOR_BRAND     : isom
    MINOR_VERSION   : 512
    ENCODER         : Lavf61.7.100
  Duration: 00:24:06.79, start: -0.021000, bitrate: 965 kb/s
  Stream #0:0: Video: hevc (Main 10), yuv420p10le(tv, bt709, progressive), 1920x1080 [SAR 1:1 DAR 16:9], 23.98 fps, 23.98 tbr, 1k tbn (default)
      Metadata:
        HANDLER_NAME    : VideoHandler
        VENDOR_ID       : [0][0][0][0]
        ENCODER         : Lavc61.19.100 libx265
        BPS             : 768382
        DURATION        : 00:24:06.569708333
        NUMBER_OF_FRAMES: 34683
        NUMBER_OF_BYTES : 138939732
        _STATISTICS_WRITING_APP: mkvpropedit v94.0 ('Initiate') 64-bit
        _STATISTICS_WRITING_DATE_UTC: 2026-01-20 08:02:58
        _STATISTICS_TAGS: BPS DURATION NUMBER_OF_FRAMES NUMBER_OF_BYTES
  Stream #0:1: Audio: aac (LC), 48000 Hz, stereo, fltp (default)
      Metadata:
        HANDLER_NAME    : SoundHandler
        VENDOR_ID       : [0][0][0][0]
        ENCODER         : Lavc61.19.100 aac
        BPS             : 193194
        DURATION        : 00:24:06.784000000
        NUMBER_OF_FRAMES: 67819
        NUMBER_OF_BYTES : 34938755
        _STATISTICS_WRITING_APP: mkvpropedit v94.0 ('Initiate') 64-bit
        _STATISTICS_WRITING_DATE_UTC: 2026-01-20 08:02:58
        _STATISTICS_TAGS: BPS DURATION NUMBER_OF_FRAMES NUMBER_OF_BYTES
Input #1, mov,mp4,m4a,3gp,3g2,mj2, from 'F:\Convert\files\[DC] Make Heroine ga Oosugiru - 07_Telegram.mp4':
  Metadata:
    major_brand     : isom
    minor_version   : 512
    compatible_brands: isomiso2avc1mp41
    encoder         : Lavf60.16.100
  Duration: 00:24:06.74, start: 0.000000, bitrate: 3764 kb/s
  Stream #1:0[0x1](und): Video: h264 (High) (avc1 / 0x31637661), yuv420p(tv, bt709, progressive), 1920x1080 [SAR 1:1 DAR 16:9], 3616 kb/s, 23.98 fps, 23.98 tbr, 24k tbn (default)
      Metadata:
        handler_name    : VideoHandler
        vendor_id       : [0][0][0][0]
        encoder         : Lavc60.31.102 h264_qsv
  Stream #1:1[0x2](und): Audio: aac (HE-AACv2) (mp4a / 0x6134706D), 48000 Hz, stereo, fltp, 144 kb/s (default)
      Metadata:
        handler_name    : SoundHandler
        vendor_id       : [0][0][0][0]
Stream mapping:
  Stream #0:0 (hevc) -> settb:default
  Stream #1:0 (h264) -> settb:default
  psnr:default -> Stream #0:0 (wrapped_avframe)
  Stream #0:1 -> #0:1 (aac (native) -> pcm_s16le (native))
Output #0, null, to 'pipe:':
  Metadata:
    COMPATIBLE_BRANDS: isomiso2avc1mp41
    MAJOR_BRAND     : isom
    MINOR_VERSION   : 512
    encoder         : Lavf61.7.100
  Stream #0:0: Video: wrapped_avframe, yuv420p10le(tv, bt709, progressive), 1920x1080 [SAR 1:1 DAR 16:9], q=2-31, 200 kb/s, 23.98 fps, 23.98 tbn
      Metadata:
        encoder         : Lavc61.19.100 wrapped_avframe
  Stream #0:1: Audio: pcm_s16le, 48000 Hz, stereo, s16, 1536 kb/s (default)
      Metadata:
        HANDLER_NAME    : SoundHandler
        VENDOR_ID       : [0][0][0][0]
        _STATISTICS_TAGS: BPS DURATION NUMBER_OF_FRAMES NUMBER_OF_BYTES
        BPS             : 193194
        DURATION        : 00:24:06.784000000
        NUMBER_OF_FRAMES: 67819
        NUMBER_OF_BYTES : 34938755
        _STATISTICS_WRITING_APP: mkvpropedit v94.0 ('Initiate') 64-bit
        _STATISTICS_WRITING_DATE_UTC: 2026-01-20 08:02:58
        encoder         : Lavc61.19.100 pcm_s16le
frame=  138 fps=0.0 q=-0.0 size=N/A time=00:00:05.75 bitrate=N/A speed=11.2x    frame=  328 fps=319 q=-0.0 size=N/A time=00:00:13.68 bitrate=N/A speed=13.3x    frame=  531 fps=342 q=-0.0 size=N/A time=00:00:22.14 bitrate=N/A speed=14.2x    frame=  732 fps=354 q=-0.0 size=N/A time=00:00:30.53 bitrate=N/A speed=14.8x    frame=  911 fps=354 q=-0.0 size=N/A time=00:00:37.99 bitrate=N/A speed=14.8x    frame= 1066 fps=344 q=-0.0 size=N/A time=00:00:44.46 bitrate=N/A speed=14.3x    frame= 1220 fps=338 q=-0.0 size=N/A time=00:00:50.88 bitrate=N/A speed=14.1x    frame= 1391 fps=337 q=-0.0 size=N/A time=00:00:58.01 bitrate=N/A speed=14.1x    frame= 1542 fps=332 q=-0.0 size=N/A time=00:01:04.31 bitrate=N/A speed=13.8x    frame= 1691 fps=328 q=-0.0 size=N/A time=00:01:10.52 bitrate=N/A speed=13.7x    frame= 1863 fps=328 q=-0.0 size=N/A time=00:01:17.70 bitrate=N/A speed=13.7x    frame= 2032 fps=329 q=-0.0 size=N/A time=00:01:24.75 bitrate=N/A speed=13.7x    frame= 2138 fps=318 q=-0.0 size=N/A time=00:01:29.17 bitrate=N/A speed=13.3x    frame= 2295 fps=318 q=-0.0 size=N/A time=00:01:35.72 bitrate=N/A speed=13.3x    frame= 2438 fps=315 q=-0.0 size=N/A time=00:01:41.68 bitrate=N/A speed=13.1x    frame= 2572 fps=312 q=-0.0 size=N/A time=00:01:47.27 bitrate=N/A speed=  13x    frame= 2753 fps=314 q=-0.0 size=N/A time=00:01:54.82 bitrate=N/A speed=13.1x    frame= 2921 fps=315 q=-0.0 size=N/A time=00:02:01.83 bitrate=N/A speed=13.1x    frame= 3119 fps=318 q=-0.0 size=N/A time=00:02:10.08 bitrate=N/A speed=13.3x    frame= 3327 fps=322 q=-0.0 size=N/A time=00:02:18.76 bitrate=N/A speed=13.4x    frame= 3534 fps=326 q=-0.0 size=N/A time=00:02:27.39 bitrate=N/A speed=13.6x    frame= 3734 fps=329 q=-0.0 size=N/A time=00:02:35.73 bitrate=N/A speed=13.7x    frame= 3934 fps=332 q=-0.0 size=N/A time=00:02:44.08 bitrate=N/A speed=13.8x    frame= 4146 fps=335 q=-0.0 size=N/A time=00:02:52.92 bitrate=N/A speed=  14x    frame= 4347 fps=337 q=-0.0 size=N/A time=00:03:01.30 bitrate=N/A speed=14.1x    frame= 4546 fps=339 q=-0.0 size=N/A time=00:03:09.60 bitrate=N/A speed=14.1x    frame= 4758 fps=342 q=-0.0 size=N/A time=00:03:18.44 bitrate=N/A speed=14.2x    frame= 4961 fps=344 q=-0.0 size=N/A time=00:03:26.91 bitrate=N/A speed=14.3x    frame= 5155 fps=345 q=-0.0 size=N/A time=00:03:35.00 bitrate=N/A speed=14.4x    frame= 5363 fps=347 q=-0.0 size=N/A time=00:03:43.68 bitrate=N/A speed=14.5x    frame= 5558 fps=348 q=-0.0 size=N/A time=00:03:51.81 bitrate=N/A speed=14.5x    frame= 5755 fps=349 q=-0.0 size=N/A time=00:04:00.03 bitrate=N/A speed=14.5x    frame= 5959 fps=350 q=-0.0 size=N/A time=00:04:08.53 bitrate=N/A speed=14.6x    frame= 6162 fps=351 q=-0.0 size=N/A time=00:04:17.00 bitrate=N/A speed=14.7x    frame= 6358 fps=352 q=-0.0 size=N/A time=00:04:25.18 bitrate=N/A speed=14.7x    frame= 6561 fps=354 q=-0.0 size=N/A time=00:04:33.64 bitrate=N/A speed=14.7x    frame= 6776 fps=355 q=-0.0 size=N/A time=00:04:42.61 bitrate=N/A speed=14.8x    frame= 6976 fps=356 q=-0.0 size=N/A time=00:04:50.95 bitrate=N/A speed=14.8x    frame= 7170 fps=357 q=-0.0 size=N/A time=00:04:59.04 bitrate=N/A speed=14.9x    frame= 7373 fps=357 q=-0.0 size=N/A time=00:05:07.51 bitrate=N/A speed=14.9x    frame= 7568 fps=358 q=-0.0 size=N/A time=00:05:15.64 bitrate=N/A speed=14.9x    frame= 7752 fps=358 q=-0.0 size=N/A time=00:05:23.32 bitrate=N/A speed=14.9x    frame= 7948 fps=358 q=-0.0 size=N/A time=00:05:31.49 bitrate=N/A speed=14.9x    frame= 8143 fps=359 q=-0.0 size=N/A time=00:05:39.63 bitrate=N/A speed=  15x    frame= 8337 fps=359 q=-0.0 size=N/A time=00:05:47.72 bitrate=N/A speed=  15x    frame= 8536 fps=360 q=-0.0 size=N/A time=00:05:56.02 bitrate=N/A speed=  15x    frame= 8736 fps=360 q=-0.0 size=N/A time=00:06:04.36 bitrate=N/A speed=  15x    frame= 8926 fps=361 q=-0.0 size=N/A time=00:06:12.28 bitrate=N/A speed=  15x    frame= 9128 fps=361 q=-0.0 size=N/A time=00:06:20.71 bitrate=N/A speed=15.1x    frame= 9333 fps=362 q=-0.0 size=N/A time=00:06:29.26 bitrate=N/A speed=15.1x    frame= 9520 fps=362 q=-0.0 size=N/A time=00:06:37.06 bitrate=N/A speed=15.1x    frame= 9717 fps=362 q=-0.0 size=N/A time=00:06:45.27 bitrate=N/A speed=15.1x    frame= 9918 fps=363 q=-0.0 size=N/A time=00:06:53.66 bitrate=N/A speed=15.1x    frame=10100 fps=362 q=-0.0 size=N/A time=00:07:01.25 bitrate=N/A speed=15.1x    frame=10285 fps=362 q=-0.0 size=N/A time=00:07:08.97 bitrate=N/A speed=15.1x    frame=10482 fps=363 q=-0.0 size=N/A time=00:07:17.18 bitrate=N/A speed=15.1x    frame=10677 fps=363 q=-0.0 size=N/A time=00:07:25.31 bitrate=N/A speed=15.1x    frame=10860 fps=363 q=-0.0 size=N/A time=00:07:32.95 bitrate=N/A speed=15.1x    frame=11058 fps=363 q=-0.0 size=N/A time=00:07:41.21 bitrate=N/A speed=15.1x    frame=11235 fps=363 q=-0.0 size=N/A time=00:07:48.59 bitrate=N/A speed=15.1x    frame=11427 fps=363 q=-0.0 size=N/A time=00:07:56.60 bitrate=N/A speed=15.1x    frame=11612 fps=363 q=-0.0 size=N/A time=00:08:04.31 bitrate=N/A speed=15.1x    frame=11807 fps=363 q=-0.0 size=N/A time=00:08:12.45 bitrate=N/A speed=15.1x    frame=12009 fps=363 q=-0.0 size=N/A time=00:08:20.87 bitrate=N/A speed=15.2x    frame=12197 fps=364 q=-0.0 size=N/A time=00:08:28.71 bitrate=N/A speed=15.2x    frame=12396 fps=364 q=-0.0 size=N/A time=00:08:37.01 bitrate=N/A speed=15.2x    frame=12597 fps=364 q=-0.0 size=N/A time=00:08:45.39 bitrate=N/A speed=15.2x    frame=12797 fps=365 q=-0.0 size=N/A time=00:08:53.74 bitrate=N/A speed=15.2x    frame=12989 fps=365 q=-0.0 size=N/A time=00:09:01.74 bitrate=N/A speed=15.2x    frame=13195 fps=365 q=-0.0 size=N/A time=00:09:10.34 bitrate=N/A speed=15.2x    frame=13381 fps=365 q=-0.0 size=N/A time=00:09:18.09 bitrate=N/A speed=15.2x    frame=13571 fps=365 q=-0.0 size=N/A time=00:09:26.02 bitrate=N/A speed=15.2x    frame=13774 fps=366 q=-0.0 size=N/A time=00:09:34.49 bitrate=N/A speed=15.3x    frame=13982 fps=366 q=-0.0 size=N/A time=00:09:43.16 bitrate=N/A speed=15.3x    frame=14154 fps=366 q=-0.0 size=N/A time=00:09:50.33 bitrate=N/A speed=15.3x    frame=14349 fps=366 q=-0.0 size=N/A time=00:09:58.47 bitrate=N/A speed=15.3x    frame=14554 fps=366 q=-0.0 size=N/A time=00:10:07.02 bitrate=N/A speed=15.3x    frame=14746 fps=366 q=-0.0 size=N/A time=00:10:15.03 bitrate=N/A speed=15.3x    frame=14944 fps=367 q=-0.0 size=N/A time=00:10:23.28 bitrate=N/A speed=15.3x    frame=15124 fps=366 q=-0.0 size=N/A time=00:10:30.79 bitrate=N/A speed=15.3x    frame=15306 fps=366 q=-0.0 size=N/A time=00:10:38.38 bitrate=N/A speed=15.3x    frame=15501 fps=366 q=-0.0 size=N/A time=00:10:46.52 bitrate=N/A speed=15.3x    frame=15703 fps=367 q=-0.0 size=N/A time=00:10:54.94 bitrate=N/A speed=15.3x    frame=15910 fps=367 q=-0.0 size=N/A time=00:11:03.57 bitrate=N/A speed=15.3x    frame=16104 fps=367 q=-0.0 size=N/A time=00:11:11.67 bitrate=N/A speed=15.3x    frame=16302 fps=367 q=-0.0 size=N/A time=00:11:19.92 bitrate=N/A speed=15.3x    frame=16501 fps=368 q=-0.0 size=N/A time=00:11:28.22 bitrate=N/A speed=15.3x    frame=16696 fps=368 q=-0.0 size=N/A time=00:11:36.36 bitrate=N/A speed=15.3x    frame=16892 fps=368 q=-0.0 size=N/A time=00:11:44.53 bitrate=N/A speed=15.3x    frame=17099 fps=368 q=-0.0 size=N/A time=00:11:53.17 bitrate=N/A speed=15.4x    frame=17304 fps=369 q=-0.0 size=N/A time=00:12:01.72 bitrate=N/A speed=15.4x    frame=17497 fps=369 q=-0.0 size=N/A time=00:12:09.77 bitrate=N/A speed=15.4x    frame=17693 fps=369 q=-0.0 size=N/A time=00:12:17.94 bitrate=N/A speed=15.4x    frame=17890 fps=369 q=-0.0 size=N/A time=00:12:26.16 bitrate=N/A speed=15.4x    frame=18090 fps=369 q=-0.0 size=N/A time=00:12:34.50 bitrate=N/A speed=15.4x    frame=18283 fps=369 q=-0.0 size=N/A time=00:12:42.55 bitrate=N/A speed=15.4x    frame=18480 fps=369 q=-0.0 size=N/A time=00:12:50.77 bitrate=N/A speed=15.4x    frame=18677 fps=369 q=-0.0 size=N/A time=00:12:58.98 bitrate=N/A speed=15.4x    frame=18884 fps=370 q=-0.0 size=N/A time=00:13:07.62 bitrate=N/A speed=15.4x    frame=19096 fps=370 q=-0.0 size=N/A time=00:13:16.46 bitrate=N/A speed=15.4x    frame=19300 fps=370 q=-0.0 size=N/A time=00:13:24.97 bitrate=N/A speed=15.4x    frame=19498 fps=370 q=-0.0 size=N/A time=00:13:33.22 bitrate=N/A speed=15.4x    frame=19708 fps=371 q=-0.0 size=N/A time=00:13:41.98 bitrate=N/A speed=15.5x    frame=19909 fps=371 q=-0.0 size=N/A time=00:13:50.37 bitrate=N/A speed=15.5x    frame=20116 fps=371 q=-0.0 size=N/A time=00:13:59.00 bitrate=N/A speed=15.5x    frame=20317 fps=371 q=-0.0 size=N/A time=00:14:07.38 bitrate=N/A speed=15.5x    frame=20507 fps=371 q=-0.0 size=N/A time=00:14:15.31 bitrate=N/A speed=15.5x    frame=20693 fps=371 q=-0.0 size=N/A time=00:14:23.07 bitrate=N/A speed=15.5x    frame=20898 fps=372 q=-0.0 size=N/A time=00:14:31.62 bitrate=N/A speed=15.5x    frame=21111 fps=372 q=-0.0 size=N/A time=00:14:40.50 bitrate=N/A speed=15.5x    frame=21305 fps=372 q=-0.0 size=N/A time=00:14:48.59 bitrate=N/A speed=15.5x    frame=21511 fps=372 q=-0.0 size=N/A time=00:14:57.18 bitrate=N/A speed=15.5x    frame=21715 fps=372 q=-0.0 size=N/A time=00:15:05.69 bitrate=N/A speed=15.5x    frame=21920 fps=373 q=-0.0 size=N/A time=00:15:14.24 bitrate=N/A speed=15.5x    frame=22122 fps=373 q=-0.0 size=N/A time=00:15:22.67 bitrate=N/A speed=15.5x    frame=22324 fps=373 q=-0.0 size=N/A time=00:15:31.09 bitrate=N/A speed=15.6x    frame=22532 fps=373 q=-0.0 size=N/A time=00:15:39.77 bitrate=N/A speed=15.6x    frame=22728 fps=373 q=-0.0 size=N/A time=00:15:47.94 bitrate=N/A speed=15.6x    frame=22921 fps=373 q=-0.0 size=N/A time=00:15:55.99 bitrate=N/A speed=15.6x    frame=23128 fps=374 q=-0.0 size=N/A time=00:16:04.63 bitrate=N/A speed=15.6x    frame=23334 fps=374 q=-0.0 size=N/A time=00:16:13.22 bitrate=N/A speed=15.6x    frame=23536 fps=374 q=-0.0 size=N/A time=00:16:21.64 bitrate=N/A speed=15.6x    frame=23736 fps=374 q=-0.0 size=N/A time=00:16:29.98 bitrate=N/A speed=15.6x    frame=23948 fps=374 q=-0.0 size=N/A time=00:16:38.83 bitrate=N/A speed=15.6x    frame=24147 fps=374 q=-0.0 size=N/A time=00:16:47.13 bitrate=N/A speed=15.6x    frame=24340 fps=374 q=-0.0 size=N/A time=00:16:55.18 bitrate=N/A speed=15.6x    frame=24550 fps=375 q=-0.0 size=N/A time=00:17:03.93 bitrate=N/A speed=15.6x    frame=24752 fps=375 q=-0.0 size=N/A time=00:17:12.36 bitrate=N/A speed=15.6x    frame=24955 fps=375 q=-0.0 size=N/A time=00:17:20.83 bitrate=N/A speed=15.6x    frame=25163 fps=375 q=-0.0 size=N/A time=00:17:29.50 bitrate=N/A speed=15.6x    frame=25362 fps=375 q=-0.0 size=N/A time=00:17:37.80 bitrate=N/A speed=15.6x    frame=25564 fps=375 q=-0.0 size=N/A time=00:17:46.23 bitrate=N/A speed=15.7x    frame=25764 fps=375 q=-0.0 size=N/A time=00:17:54.57 bitrate=N/A speed=15.7x    frame=25966 fps=376 q=-0.0 size=N/A time=00:18:02.99 bitrate=N/A speed=15.7x    frame=26164 fps=376 q=-0.0 size=N/A time=00:18:11.25 bitrate=N/A speed=15.7x    frame=26365 fps=376 q=-0.0 size=N/A time=00:18:19.64 bitrate=N/A speed=15.7x    frame=26574 fps=376 q=-0.0 size=N/A time=00:18:28.35 bitrate=N/A speed=15.7x    frame=26773 fps=376 q=-0.0 size=N/A time=00:18:36.65 bitrate=N/A speed=15.7x    frame=26965 fps=376 q=-0.0 size=N/A time=00:18:44.66 bitrate=N/A speed=15.7x    frame=27146 fps=376 q=-0.0 size=N/A time=00:18:52.21 bitrate=N/A speed=15.7x    frame=27344 fps=376 q=-0.0 size=N/A time=00:19:00.47 bitrate=N/A speed=15.7x    frame=27532 fps=376 q=-0.0 size=N/A time=00:19:08.31 bitrate=N/A speed=15.7x    frame=27727 fps=376 q=-0.0 size=N/A time=00:19:16.44 bitrate=N/A speed=15.7x    frame=27924 fps=376 q=-0.0 size=N/A time=00:19:24.66 bitrate=N/A speed=15.7x    frame=28120 fps=376 q=-0.0 size=N/A time=00:19:32.83 bitrate=N/A speed=15.7x    frame=28317 fps=376 q=-0.0 size=N/A time=00:19:41.05 bitrate=N/A speed=15.7x    frame=28513 fps=376 q=-0.0 size=N/A time=00:19:49.22 bitrate=N/A speed=15.7x    frame=28710 fps=376 q=-0.0 size=N/A time=00:19:57.44 bitrate=N/A speed=15.7x    frame=28883 fps=376 q=-0.0 size=N/A time=00:20:04.66 bitrate=N/A speed=15.7x    frame=29048 fps=375 q=-0.0 size=N/A time=00:20:11.54 bitrate=N/A speed=15.7x    frame=29239 fps=375 q=-0.0 size=N/A time=00:20:19.50 bitrate=N/A speed=15.7x    frame=29420 fps=375 q=-0.0 size=N/A time=00:20:27.05 bitrate=N/A speed=15.6x    frame=29593 fps=375 q=-0.0 size=N/A time=00:20:34.27 bitrate=N/A speed=15.6x    frame=29774 fps=375 q=-0.0 size=N/A time=00:20:41.82 bitrate=N/A speed=15.6x    frame=29950 fps=374 q=-0.0 size=N/A time=00:20:49.16 bitrate=N/A speed=15.6x    frame=30120 fps=374 q=-0.0 size=N/A time=00:20:56.25 bitrate=N/A speed=15.6x    frame=30309 fps=374 q=-0.0 size=N/A time=00:21:04.13 bitrate=N/A speed=15.6x    frame=30512 fps=374 q=-0.0 size=N/A time=00:21:12.60 bitrate=N/A speed=15.6x    frame=30708 fps=374 q=-0.0 size=N/A time=00:21:20.77 bitrate=N/A speed=15.6x    frame=30909 fps=374 q=-0.0 size=N/A time=00:21:29.16 bitrate=N/A speed=15.6x    frame=31105 fps=374 q=-0.0 size=N/A time=00:21:37.33 bitrate=N/A speed=15.6x    frame=31314 fps=375 q=-0.0 size=N/A time=00:21:46.05 bitrate=N/A speed=15.6x    frame=31498 fps=375 q=-0.0 size=N/A time=00:21:53.72 bitrate=N/A speed=15.6x    frame=31698 fps=375 q=-0.0 size=N/A time=00:22:02.07 bitrate=N/A speed=15.6x    frame=31887 fps=375 q=-0.0 size=N/A time=00:22:09.95 bitrate=N/A speed=15.6x    frame=32072 fps=374 q=-0.0 size=N/A time=00:22:17.66 bitrate=N/A speed=15.6x    frame=32272 fps=375 q=-0.0 size=N/A time=00:22:26.01 bitrate=N/A speed=15.6x    frame=32472 fps=375 q=-0.0 size=N/A time=00:22:34.35 bitrate=N/A speed=15.6x    frame=32650 fps=374 q=-0.0 size=N/A time=00:22:41.77 bitrate=N/A speed=15.6x    frame=32802 fps=374 q=-0.0 size=N/A time=00:22:48.11 bitrate=N/A speed=15.6x    frame=32979 fps=374 q=-0.0 size=N/A time=00:22:55.49 bitrate=N/A speed=15.6x    frame=33169 fps=374 q=-0.0 size=N/A time=00:23:03.42 bitrate=N/A speed=15.6x    frame=33352 fps=374 q=-0.0 size=N/A time=00:23:11.05 bitrate=N/A speed=15.6x    frame=33512 fps=373 q=-0.0 size=N/A time=00:23:17.72 bitrate=N/A speed=15.6x    frame=33664 fps=373 q=-0.0 size=N/A time=00:23:24.06 bitrate=N/A speed=15.6x    frame=33805 fps=372 q=-0.0 size=N/A time=00:23:29.95 bitrate=N/A speed=15.5x    frame=33936 fps=372 q=-0.0 size=N/A time=00:23:35.41 bitrate=N/A speed=15.5x    frame=34101 fps=371 q=-0.0 size=N/A time=00:23:42.29 bitrate=N/A speed=15.5x    frame=34266 fps=371 q=-0.0 size=N/A time=00:23:49.17 bitrate=N/A speed=15.5x    frame=34394 fps=370 q=-0.0 size=N/A time=00:23:54.51 bitrate=N/A speed=15.4x    frame=34565 fps=370 q=-0.0 size=N/A time=00:24:01.64 bitrate=N/A speed=15.4x    [Parsed_psnr_16 @ 00000280bfacb580] PSNR y:49.016021 u:50.363931 v:50.410388 average:49.426758 min:37.986515 max:inf
[out#0/null @ 00000280b257fe80] video:14903KiB audio:271276KiB subtitle:0KiB other streams:0KiB global headers:0KiB muxing overhead: unknown
frame=34683 fps=370 q=-0.0 Lsize=N/A time=00:24:06.57 bitrate=N/A speed=15.4x    
